<svg width="19" height="19" viewBox="0 0 19 19" fill="none" xmlns="http://www.w3.org/2000/svg">
<path d="M9.50028 4.07159C8.82924 4.07159 8.17326 4.27058 7.61531 4.64339C7.05736 5.01621 6.62249 5.5461 6.36569 6.16606C6.10889 6.78603 6.0417 7.46822 6.17262 8.12637C6.30353 8.78452 6.62667 9.38906 7.10117 9.86356C7.57567 10.3381 8.18022 10.6612 8.83837 10.7921C9.49652 10.923 10.1787 10.8558 10.7987 10.599C11.4186 10.3422 11.9485 9.90737 12.3213 9.34942C12.6942 8.79147 12.8931 8.1355 12.8931 7.46445C12.8931 6.56461 12.5357 5.70162 11.8994 5.06534C11.2631 4.42905 10.4001 4.07159 9.50028 4.07159Z" fill="#969696"/>
<path d="M9.50001 0C7.62108 0 5.78435 0.557165 4.22209 1.60104C2.65982 2.64491 1.44218 4.12861 0.723149 5.86451C0.00411619 7.60041 -0.184016 9.51054 0.182544 11.3534C0.549104 13.1962 1.45389 14.8889 2.78249 16.2175C4.11109 17.5461 5.80383 18.4509 7.64665 18.8175C9.48947 19.184 11.3996 18.9959 13.1355 18.2769C14.8714 17.5578 16.3551 16.3402 17.399 14.7779C18.4428 13.2157 19 11.3789 19 9.5C18.9971 6.98133 17.9953 4.56663 16.2143 2.78566C14.4334 1.00469 12.0187 0.00287356 9.50001 0ZM14.9231 15.5569C14.9096 14.6669 14.547 13.8177 13.9134 13.1925C13.2798 12.5673 12.4259 12.216 11.5357 12.2143H7.46429C6.57413 12.216 5.72025 12.5673 5.08664 13.1925C4.45302 13.8177 4.09039 14.6669 4.07686 15.5569C2.84632 14.4582 1.97854 13.0115 1.58843 11.4086C1.19832 9.80567 1.30429 8.12206 1.89229 6.58069C2.4803 5.03933 3.52262 3.71292 4.88122 2.7771C6.23982 1.84128 7.85063 1.3402 9.50035 1.3402C11.1501 1.3402 12.7609 1.84128 14.1195 2.7771C15.4781 3.71292 16.5204 5.03933 17.1084 6.58069C17.6964 8.12206 17.8024 9.80567 17.4123 11.4086C17.0222 13.0115 16.1544 14.4582 14.9238 15.5569H14.9231Z" fill="#969696"/>
</svg>
