<svg width="22" height="21" viewBox="0 0 22 21" fill="none" xmlns="http://www.w3.org/2000/svg">
<path d="M11.7129 0.295798C11.6199 0.20207 11.5093 0.127676 11.3874 0.0769069C11.2656 0.0261382 11.1349 0 11.0029 0C10.8709 0 10.7402 0.0261382 10.6183 0.0769069C10.4964 0.127676 10.3858 0.20207 10.2929 0.295798L1.29287 9.2958C1.19914 9.38876 1.12475 9.49936 1.07398 9.62122C1.02321 9.74308 0.99707 9.87379 0.99707 10.0058C0.99707 10.1378 1.02321 10.2685 1.07398 10.3904C1.12475 10.5122 1.19914 10.6228 1.29287 10.7158C1.38631 10.8085 1.49712 10.8818 1.61896 10.9316C1.7408 10.9813 1.87126 11.0066 2.00287 11.0058H3.00287V18.0058C3.00287 18.5362 3.21358 19.0449 3.58865 19.42C3.96373 19.7951 4.47244 20.0058 5.00287 20.0058H17.0029C17.5333 20.0058 18.042 19.7951 18.4171 19.42C18.7922 19.0449 19.0029 18.5362 19.0029 18.0058V11.0058H20.0029C20.2681 11.0058 20.5224 10.9004 20.71 10.7129C20.8975 10.5254 21.0029 10.271 21.0029 10.0058C21.0036 9.87419 20.9784 9.74373 20.9286 9.62189C20.8789 9.50005 20.8055 9.38924 20.7129 9.2958L11.7129 0.295798ZM5.00287 18.0058V8.4158L11.0029 2.4158L17.0029 8.4158V18.0058H5.00287Z" fill="#969696"/>
</svg>
