<svg width="21" height="18" viewBox="0 0 21 18" fill="none" xmlns="http://www.w3.org/2000/svg">
<path d="M20.6456 0.0740183C20.7522 0.128116 20.8416 0.209824 20.9041 0.310247C20.9666 0.41067 20.9998 0.525959 21 0.643564V13.5001C21 13.6112 20.9707 13.7204 20.9148 13.8171C20.8589 13.9137 20.7783 13.9946 20.6811 14.0517L14.1186 17.9086C14.0197 17.9666 13.907 17.9981 13.7918 17.9999C13.6766 18.0017 13.563 17.9738 13.4623 17.9189L7.54294 14.6971C7.44688 14.6373 7.33554 14.6054 7.22175 14.6049C7.10797 14.6045 6.99637 14.6355 6.89981 14.6945L6.88144 14.7048L0.975188 17.9189C0.875292 17.9733 0.762618 18.0013 0.648324 17.9999C0.534029 17.9985 0.422077 17.968 0.323552 17.9112C0.225027 17.8545 0.143345 17.7735 0.0865957 17.6763C0.0298459 17.5791 -4.2786e-06 17.4691 4.29697e-07 17.3571V5.14336C-0.000120367 5.03995 0.0252293 4.93804 0.0738978 4.84627C0.122566 4.75451 0.193117 4.6756 0.279563 4.61624L6.84206 0.116445C6.95244 0.0406572 7.08396 0 7.21875 0C7.35354 0 7.48506 0.0406572 7.59544 0.116445L13.7812 4.35911L19.9671 0.116445C20.0656 0.0490974 20.1811 0.00952692 20.3009 0.00204574C20.4208 -0.00543543 20.5405 0.0194598 20.6469 0.0740183H20.6456ZM1.3125 5.47763V16.2643L6.23438 13.5863C6.3387 13.5255 6.44854 13.4742 6.5625 13.4333V1.87779L1.3125 5.47763ZM8.2005 13.585L13.1302 16.2669L13.125 5.47763L7.875 1.87779V13.4358C7.98656 13.4744 8.0955 13.5246 8.2005 13.585ZM14.4427 16.2193L19.6875 13.1363V1.87779L14.4375 5.47763L14.4427 16.2193Z" fill="#969696"/>
</svg>
