<svg width="17" height="23" viewBox="0 0 17 23" fill="none" xmlns="http://www.w3.org/2000/svg">
<path d="M8.73233 4.45933C8.71252 4.41561 8.68077 4.37858 8.64085 4.35261C8.60093 4.32665 8.5545 4.31285 8.50708 4.31285C8.45966 4.31285 8.41324 4.32665 8.37331 4.35261C8.33339 4.37858 8.30164 4.41561 8.28183 4.45933L7.2675 6.69177C7.24969 6.73065 7.22238 6.76427 7.18816 6.78942C7.15394 6.81458 7.11396 6.83045 7.072 6.83552L4.66508 7.1259C4.61815 7.13166 4.57382 7.15093 4.53732 7.18142C4.50082 7.21191 4.47368 7.25236 4.45909 7.29799C4.44449 7.34362 4.44306 7.39253 4.45496 7.43895C4.46686 7.48538 4.4916 7.52739 4.52625 7.56002L6.30558 9.22896C6.33685 9.2582 6.36018 9.29512 6.37333 9.33615C6.38648 9.37719 6.38901 9.42096 6.38067 9.46327L5.9075 11.874C5.89823 11.9211 5.90246 11.97 5.9197 12.0147C5.93694 12.0595 5.96646 12.0983 6.00476 12.1266C6.04306 12.1549 6.08855 12.1714 6.13584 12.1743C6.18313 12.1772 6.23023 12.1662 6.27158 12.1428L8.38667 10.9425C8.4235 10.9217 8.46494 10.9108 8.50708 10.9108C8.54922 10.9108 8.59066 10.9217 8.6275 10.9425L10.7426 12.1428C10.9267 12.2477 11.1477 12.0853 11.1067 11.874L10.6349 9.46327C10.6266 9.42096 10.6291 9.37719 10.6423 9.33615C10.6554 9.29512 10.6787 9.2582 10.71 9.22896L12.4879 7.56002C12.5226 7.52739 12.5473 7.48538 12.5592 7.43895C12.5711 7.39253 12.5697 7.34362 12.5551 7.29799C12.5405 7.25236 12.5133 7.21191 12.4768 7.18142C12.4403 7.15093 12.396 7.13166 12.3491 7.1259L9.94358 6.83552C9.90137 6.83068 9.86109 6.81493 9.82661 6.78975C9.79213 6.76458 9.7646 6.73084 9.74667 6.69177L8.73233 4.45933ZM17 8.62521C17.0013 9.83891 16.7495 11.0392 16.2612 12.1471C15.7729 13.255 15.0591 14.2456 14.1667 15.0537V22.2815C14.1666 22.4073 14.134 22.531 14.0721 22.6401C14.0102 22.7491 13.9211 22.8398 13.8138 22.9029C13.7065 22.9661 13.5848 22.9996 13.4607 23C13.3367 23.0004 13.2147 22.9678 13.107 22.9054L8.5 20.2345L3.893 22.9054C3.78529 22.9678 3.66332 23.0004 3.53927 23C3.41523 22.9996 3.29348 22.9661 3.18619 22.9029C3.0789 22.8398 2.98983 22.7491 2.92791 22.6401C2.86599 22.531 2.83337 22.4073 2.83333 22.2815V15.0537C1.77652 14.0946 0.972952 12.8824 0.495794 11.5276C0.0186358 10.1728 -0.11695 8.71843 0.101382 7.29687C0.319715 5.87532 0.885029 4.53176 1.74585 3.38855C2.60667 2.24534 3.73565 1.33879 5.02998 0.751452C6.32431 0.164113 7.74287 -0.0853538 9.1565 0.0257661C10.5701 0.136886 11.9339 0.605063 13.1236 1.38767C14.3134 2.17027 15.2913 3.24243 15.9683 4.50653C16.6454 5.77063 17 7.18649 17 8.62521ZM8.5 17.2502C7.00781 17.2524 5.54158 16.8542 4.25 16.0959V21.0438L8.14867 18.7826C8.25567 18.7206 8.37677 18.688 8.5 18.688C8.62323 18.688 8.74433 18.7206 8.85133 18.7826L12.75 21.0452V16.0973C11.4583 16.8552 9.99207 17.2529 8.5 17.2502ZM8.5 15.8127C10.3786 15.8127 12.1803 15.0555 13.5087 13.7075C14.8371 12.3596 15.5833 10.5315 15.5833 8.62521C15.5833 6.71896 14.8371 4.89079 13.5087 3.54287C12.1803 2.19495 10.3786 1.4377 8.5 1.4377C6.62138 1.4377 4.81971 2.19495 3.49133 3.54287C2.16295 4.89079 1.41667 6.71896 1.41667 8.62521C1.41667 10.5315 2.16295 12.3596 3.49133 13.7075C4.81971 15.0555 6.62138 15.8127 8.5 15.8127Z" fill="#969696"/>
</svg>
