<svg width="21" height="18" viewBox="0 0 21 18" fill="none" xmlns="http://www.w3.org/2000/svg">
<path d="M13.1316 17.739L7.875 14.8784V0.309295L13.125 3.90914L13.1316 17.739ZM14.4441 17.7171L20.6811 14.0517C20.7783 13.9946 20.8589 13.9138 20.9148 13.8171C20.9707 13.7205 21 13.6113 21 13.5002V0.643566C21.0001 0.525876 20.9673 0.410407 20.905 0.309748C20.8428 0.209089 20.7535 0.127102 20.647 0.0727261C20.5404 0.0183501 20.4207 -0.00632845 20.3008 0.00138086C20.1809 0.00909017 20.0654 0.0488912 19.9671 0.116445L14.4375 3.90914L14.4441 17.7171ZM0.279563 4.61625L6.5625 0.309295V14.8784L0.975188 17.919C0.875292 17.9734 0.762618 18.0013 0.648324 18C0.534029 17.9986 0.422077 17.968 0.323552 17.9113C0.225027 17.8545 0.143345 17.7735 0.0865957 17.6763C0.0298459 17.5791 -4.2786e-06 17.4691 4.29697e-07 17.3571V5.14337C-0.000120367 5.03997 0.0252293 4.93805 0.0738978 4.84629C0.122566 4.75452 0.193117 4.67561 0.279563 4.61625Z" fill="#E32935"/>
</svg>
