<svg width="24" height="31" viewBox="0 0 24 31" fill="none" xmlns="http://www.w3.org/2000/svg">
<path fill-rule="evenodd" clip-rule="evenodd" d="M9.60868 0C5.74269 0 2.60868 3.13401 2.60868 7V13.1619C2.60868 14.2623 1.94562 15.229 1.22298 16.0588C0.461261 16.9335 5.46794e-08 18.0766 0 19.3276C-1.05097e-07 21.7319 1.71779 23.7947 4.09934 24.125C6.46435 24.4529 9.41953 24.7827 11.739 24.7827C14.0585 24.7827 17.0137 24.4529 19.3787 24.125C21.7603 23.7947 23.4781 21.7319 23.4781 19.3276C23.4781 18.0766 23.0168 16.9335 22.2551 16.0588C21.5325 15.229 20.8694 14.2623 20.8694 13.162V7C20.8694 3.13401 17.7354 0 13.8694 0H9.60868Z" fill="white"/>
<path d="M15 28.2507C14.299 29.305 13.1002 29.9999 11.7392 29.9999C10.3781 29.9999 9.17935 29.305 8.47832 28.2507" stroke="white" stroke-width="1.5" stroke-linecap="round"/>
</svg>
