<svg width="22" height="21" viewBox="0 0 22 21" fill="none" xmlns="http://www.w3.org/2000/svg">
<path d="M11.7429 0.327393C11.6492 0.224275 11.5349 0.141884 11.4075 0.0855038C11.2801 0.029124 11.1423 0 11.0029 0C10.8636 0 10.7257 0.029124 10.5983 0.0855038C10.4709 0.141884 10.3566 0.224275 10.2629 0.327393L1.2629 10.3274C1.13019 10.4705 1.04225 10.6493 1.00991 10.8417C0.977581 11.0342 1.00227 11.2319 1.08094 11.4105C1.15961 11.5891 1.28882 11.7408 1.45265 11.8469C1.61647 11.9529 1.80775 12.0087 2.0029 12.0074H4.0029V19.0074C4.0029 19.2726 4.10826 19.527 4.2958 19.7145C4.48333 19.902 4.73769 20.0074 5.0029 20.0074H17.0029C17.2681 20.0074 17.5225 19.902 17.71 19.7145C17.8975 19.527 18.0029 19.2726 18.0029 19.0074V12.0074H20.0029C20.2681 12.0074 20.5225 11.902 20.71 11.7145C20.8975 11.527 21.0029 11.2726 21.0029 11.0074C21.0048 10.7561 20.9119 10.5133 20.7429 10.3274L11.7429 0.327393Z" fill="#E32935"/>
</svg>
