<svg width="47" height="20" viewBox="0 0 47 20" fill="none" xmlns="http://www.w3.org/2000/svg">
<path d="M3.4273 8.05906C2.80395 8.05906 2.20657 7.9774 1.63516 7.81417C1.06375 7.64349 0.603664 7.42458 0.254883 7.15743L0.867104 5.79941C1.20104 6.03688 1.59435 6.23353 2.04702 6.38937C2.50712 6.53779 2.97092 6.61199 3.43843 6.61199C3.79464 6.61199 4.08034 6.5786 4.29554 6.51181C4.51817 6.4376 4.68143 6.33742 4.78532 6.21126C4.88922 6.08511 4.94116 5.9404 4.94116 5.77714C4.94116 5.56936 4.85953 5.4061 4.69627 5.28737C4.53302 5.16121 4.31781 5.06103 4.05066 4.98682C3.7835 4.90519 3.48667 4.83098 3.16015 4.7642C2.84106 4.68999 2.51825 4.60094 2.19173 4.49705C1.87263 4.39315 1.57951 4.25957 1.31236 4.09632C1.04521 3.93306 0.82629 3.71785 0.65561 3.4507C0.492351 3.18355 0.410721 2.8422 0.410721 2.42662C0.410721 1.98137 0.529455 1.57693 0.766923 1.21331C1.01181 0.842265 1.37543 0.549147 1.85779 0.333939C2.34757 0.111313 2.95979 0 3.69445 0C4.18423 0 4.66659 0.0593704 5.14152 0.178101C5.61646 0.289414 6.03574 0.460097 6.39936 0.69014L5.84279 2.05929C5.47918 1.85151 5.11555 1.69938 4.75193 1.60291C4.38831 1.49901 4.03211 1.44707 3.68332 1.44707C3.33454 1.44707 3.04884 1.48788 2.82621 1.56951C2.60359 1.65115 2.44403 1.75875 2.34757 1.89232C2.2511 2.01848 2.20286 2.16689 2.20286 2.33757C2.20286 2.53794 2.28449 2.70119 2.44775 2.82735C2.611 2.94608 2.82621 3.04256 3.09336 3.11676C3.36052 3.19097 3.65364 3.26518 3.97274 3.33939C4.29926 3.41359 4.62207 3.49894 4.94116 3.59541C5.26768 3.69188 5.56451 3.82175 5.83166 3.98501C6.09881 4.14826 6.31402 4.36347 6.47728 4.63062C6.64796 4.89777 6.7333 5.23542 6.7333 5.64357C6.7333 6.0814 6.61085 6.48213 6.36597 6.84575C6.12108 7.20937 5.75374 7.5025 5.26397 7.72512C4.78161 7.94775 4.16939 8.05906 3.4273 8.05906ZM11.4273 8.05906C10.3216 8.05906 9.45708 7.7511 8.83372 7.13516C8.21037 6.51923 7.8987 5.63986 7.8987 4.49705V0.133576H9.70197V4.43026C9.70197 5.17234 9.85409 5.70664 10.1583 6.03316C10.4626 6.35969 10.8893 6.52294 11.4384 6.52294C11.9876 6.52294 12.4143 6.35969 12.7185 6.03316C13.0228 5.70664 13.1749 5.17234 13.1749 4.43026V0.133576H14.9559V4.49705C14.9559 5.63986 14.6442 6.51923 14.0209 7.13516C13.3975 7.7511 12.533 8.05906 11.4273 8.05906ZM16.7379 7.92549V0.133576H20.5448C21.5244 0.133576 22.259 0.319094 22.7488 0.69014C23.246 1.06119 23.4946 1.55096 23.4946 2.15947C23.4946 2.56762 23.3944 2.92382 23.1941 3.22808C22.9937 3.52491 22.7192 3.75496 22.3703 3.91822C22.0215 4.08147 21.6208 4.16311 21.1682 4.16311L21.3797 3.70672C21.8694 3.70672 22.3036 3.78836 22.682 3.95161C23.0605 4.10745 23.3536 4.34121 23.5614 4.65288C23.7766 4.96456 23.8842 5.34674 23.8842 5.79941C23.8842 6.46728 23.6208 6.99046 23.0939 7.36892C22.567 7.73997 21.7915 7.92549 20.7674 7.92549H16.7379ZM18.53 6.56747H20.6339C21.1014 6.56747 21.4538 6.49326 21.6913 6.34484C21.9362 6.189 22.0587 5.94411 22.0587 5.61017C22.0587 5.28365 21.9362 5.04248 21.6913 4.88664C21.4538 4.72339 21.1014 4.64175 20.6339 4.64175H18.3965V3.32826H20.3222C20.76 3.32826 21.094 3.25405 21.324 3.10563C21.5615 2.94979 21.6802 2.71604 21.6802 2.40436C21.6802 2.1001 21.5615 1.87377 21.324 1.72535C21.094 1.56951 20.76 1.49159 20.3222 1.49159H18.53V6.56747ZM27.8096 8.05906C27.1863 8.05906 26.5889 7.9774 26.0175 7.81417C25.4461 7.64349 24.986 7.42458 24.6372 7.15743L25.2494 5.79941C25.5833 6.03688 25.9767 6.23353 26.4293 6.38937C26.8895 6.53779 27.3532 6.61199 27.8207 6.61199C28.1769 6.61199 28.4627 6.5786 28.6778 6.51181C28.9005 6.4376 29.0638 6.33742 29.1676 6.21126C29.2715 6.08511 29.3235 5.9404 29.3235 5.77714C29.3235 5.56936 29.2419 5.4061 29.0786 5.28737C28.9153 5.16121 28.7001 5.06103 28.433 4.98682C28.1658 4.90519 27.869 4.83098 27.5425 4.7642C27.2234 4.68999 26.9006 4.60094 26.574 4.49705C26.255 4.39315 25.9618 4.25957 25.6947 4.09632C25.4275 3.93306 25.2086 3.71785 25.0379 3.4507C24.8747 3.18355 24.793 2.8422 24.793 2.42662C24.793 1.98137 24.9118 1.57693 25.1492 1.21331C25.3941 0.842265 25.7578 0.549147 26.2401 0.333939C26.7299 0.111313 27.3421 0 28.0768 0C28.5665 0 29.0489 0.0593704 29.5238 0.178101C29.9988 0.289414 30.4181 0.460097 30.7817 0.69014L30.2251 2.05929C29.8615 1.85151 29.4979 1.69938 29.1342 1.60291C28.7706 1.49901 28.4144 1.44707 28.0656 1.44707C27.7169 1.44707 27.4311 1.48788 27.2085 1.56951C26.9859 1.65115 26.8264 1.75875 26.7299 1.89232C26.6334 2.01848 26.5852 2.16689 26.5852 2.33757C26.5852 2.53794 26.6668 2.70119 26.83 2.82735C26.9934 2.94608 27.2085 3.04256 27.4757 3.11676C27.7428 3.19097 28.036 3.26518 28.355 3.33939C28.6816 3.41359 29.0044 3.49894 29.3235 3.59541C29.65 3.69188 29.9468 3.82175 30.214 3.98501C30.4811 4.14826 30.6964 4.36347 30.8596 4.63062C31.0303 4.89777 31.1156 5.23542 31.1156 5.64357C31.1156 6.0814 30.9932 6.48213 30.7483 6.84575C30.5034 7.20937 30.136 7.5025 29.6463 7.72512C29.164 7.94775 28.5518 8.05906 27.8096 8.05906ZM32.3478 7.92549V0.133576H34.1511V7.92549H32.3478ZM36.0003 7.92549V0.133576H39.5401C40.3861 0.133576 41.1319 0.296831 41.7775 0.623353C42.4231 0.942447 42.9276 1.39141 43.2913 1.97024C43.6549 2.54907 43.8368 3.23549 43.8368 4.02953C43.8368 4.81614 43.6549 5.50258 43.2913 6.08882C42.9276 6.66765 42.4231 7.12032 41.7775 7.44684C41.1319 7.76593 40.3861 7.92549 39.5401 7.92549H36.0003ZM37.8036 6.44502H39.451C39.9705 6.44502 40.4194 6.34855 40.7978 6.15561C41.1838 5.95525 41.4806 5.67325 41.6884 5.30963C41.9036 4.94601 42.0112 4.51931 42.0112 4.02953C42.0112 3.53234 41.9036 3.10563 41.6884 2.74943C41.4806 2.38581 41.1838 2.10753 40.7978 1.91458C40.4194 1.71422 39.9705 1.61404 39.451 1.61404H37.8036V6.44502ZM45.1966 7.92549V0.133576H46.9999V7.92549H45.1966Z" fill="#1872B3"/>
<path d="M3.17343 19.0567V11.0098H0V9.13971H8.64194V11.0098H5.4685V19.0567H3.17343ZM11.9877 13.1348H16.762V14.9199H11.9877V13.1348ZM12.1577 17.215H17.5554V19.0567H9.8768V9.13971H17.3712V10.9814H12.1577V17.215ZM19.3815 19.0567V9.13971H23.6741C24.5619 9.13971 25.3269 9.28614 25.9692 9.57889C26.6114 9.86223 27.1072 10.2731 27.4568 10.8114C27.8062 11.3498 27.9809 11.9921 27.9809 12.7382C27.9809 13.4748 27.8062 14.1124 27.4568 14.6507C27.1072 15.1891 26.6114 15.6047 25.9692 15.8974C25.3269 16.1808 24.5619 16.3224 23.6741 16.3224H20.6566L21.6766 15.2882V19.0567H19.3815ZM21.6766 15.5432L20.6566 14.4524H23.5466C24.255 14.4524 24.7838 14.3013 25.1334 13.999C25.4828 13.6968 25.6575 13.2765 25.6575 12.7382C25.6575 12.1904 25.4828 11.7654 25.1334 11.4631C24.7838 11.1609 24.255 11.0098 23.5466 11.0098H20.6566L21.6766 9.9189V15.5432ZM27.818 19.0567L32.2382 9.13971H34.5049L38.9392 19.0567H36.5308L32.904 10.3014H33.8107L30.1698 19.0567H27.818ZM30.0281 16.9316L30.6373 15.1891H35.7374L36.3608 16.9316H30.0281ZM41.5242 19.0567V11.0098H38.3508V9.13971H46.9927V11.0098H43.8193V19.0567H41.5242Z" fill="#1872B3"/>
</svg>
