<svg width="17" height="23" viewBox="0 0 17 23" fill="none" xmlns="http://www.w3.org/2000/svg">
<path d="M17 8.62516C17 10.9127 16.1045 13.1065 14.5104 14.7241C12.9163 16.3416 10.7543 17.2503 8.5 17.2503C6.24566 17.2503 4.08365 16.3416 2.48959 14.7241C0.895533 13.1065 0 10.9127 0 8.62516C0 6.33763 0.895533 4.14378 2.48959 2.52625C4.08365 0.90872 6.24566 0 8.5 0C10.7543 0 12.9163 0.90872 14.5104 2.52625C16.1045 4.14378 17 6.33763 17 8.62516ZM8.28325 4.45921L7.2675 6.69169C7.24969 6.73057 7.22238 6.76419 7.18816 6.78935C7.15394 6.81451 7.11396 6.83037 7.072 6.83544L4.6665 7.12582C4.61945 7.13136 4.57495 7.15046 4.53826 7.18086C4.50157 7.21125 4.47423 7.25168 4.45948 7.29735C4.44472 7.34302 4.44317 7.39203 4.455 7.43857C4.46684 7.48511 4.49156 7.52723 4.52625 7.55996L6.30558 9.22893C6.33685 9.25817 6.36018 9.29508 6.37333 9.33612C6.38648 9.37715 6.38901 9.42093 6.38067 9.46324L5.9075 11.874C5.865 12.0853 6.086 12.2477 6.27158 12.1428L8.38525 10.9425C8.42226 10.9214 8.46396 10.9104 8.50638 10.9104C8.54879 10.9104 8.59049 10.9214 8.6275 10.9425L10.7412 12.1428C10.9253 12.2477 11.1477 12.0853 11.1067 11.874L10.6335 9.46324C10.6252 9.42093 10.6277 9.37715 10.6408 9.33612C10.654 9.29508 10.6773 9.25817 10.7086 9.22893L12.4879 7.55996C12.5226 7.52723 12.5473 7.48511 12.5592 7.43857C12.571 7.39203 12.5694 7.34302 12.5547 7.29735C12.5399 7.25168 12.5126 7.21125 12.4759 7.18086C12.4392 7.15046 12.3947 7.13136 12.3477 7.12582L9.94217 6.83544C9.90021 6.83037 9.86022 6.81451 9.82601 6.78935C9.79179 6.76419 9.76448 6.73057 9.74667 6.69169L8.73092 4.45921C8.71094 4.41589 8.6792 4.37925 8.63943 4.35358C8.59966 4.32791 8.55351 4.31428 8.50638 4.31428C8.45924 4.31428 8.41308 4.32791 8.37332 4.35358C8.33355 4.37925 8.30181 4.41589 8.28183 4.45921H8.28325ZM8.5 18.6879C10.5266 18.691 12.5051 18.0611 14.1667 16.8838V22.2817C14.1666 22.4136 14.1307 22.543 14.063 22.6556C13.9953 22.7682 13.8983 22.8598 13.7827 22.9202C13.6672 22.9806 13.5374 23.0076 13.4077 22.9982C13.278 22.9887 13.1534 22.9433 13.0475 22.8668L8.5 20.1254L3.9525 22.8668C3.84658 22.9433 3.72196 22.9887 3.59227 22.9982C3.46258 23.0076 3.33284 22.9806 3.21726 22.9202C3.10168 22.8598 3.00472 22.7682 2.937 22.6556C2.86928 22.543 2.83341 22.4136 2.83333 22.2817V16.8838C4.49493 18.0611 6.47339 18.691 8.5 18.6879Z" fill="#E32935"/>
</svg>
