<svg width="15" height="20" viewBox="0 0 15 20" fill="none" xmlns="http://www.w3.org/2000/svg">
<path d="M15 7.50014C15 9.48931 14.2098 11.397 12.8033 12.8035C11.3968 14.2101 9.48912 15.0003 7.5 15.0003C5.51088 15.0003 3.60322 14.2101 2.1967 12.8035C0.790177 11.397 0 9.48931 0 7.50014C0 5.51098 0.790177 3.60329 2.1967 2.19674C3.60322 0.790191 5.51088 0 7.5 0C9.48912 0 11.3968 0.790191 12.8033 2.19674C14.2098 3.60329 15 5.51098 15 7.50014ZM7.30875 3.87757L6.4125 5.81886C6.39678 5.85267 6.37268 5.8819 6.34249 5.90378C6.3123 5.92566 6.27702 5.93946 6.24 5.94386L4.1175 6.19637C4.07599 6.20118 4.03672 6.21779 4.00435 6.24422C3.97197 6.27066 3.94785 6.30581 3.93483 6.34552C3.92181 6.38524 3.92044 6.42785 3.93089 6.46832C3.94133 6.50879 3.96314 6.54542 3.99375 6.57388L5.56375 8.02515C5.59134 8.05058 5.61192 8.08268 5.62353 8.11836C5.63513 8.15405 5.63736 8.19211 5.63 8.22891L5.2125 10.3252C5.175 10.509 5.37 10.6502 5.53375 10.559L7.39875 9.51518C7.4314 9.4969 7.4682 9.4873 7.50563 9.4873C7.54305 9.4873 7.57985 9.4969 7.6125 9.51518L9.4775 10.559C9.64 10.6502 9.83625 10.509 9.8 10.3252L9.3825 8.22891C9.37514 8.19211 9.37737 8.15405 9.38897 8.11836C9.40057 8.08268 9.42116 8.05058 9.44875 8.02515L11.0187 6.57388C11.0494 6.54542 11.0712 6.50879 11.0816 6.46832C11.0921 6.42785 11.0907 6.38524 11.0777 6.34552C11.0646 6.30581 11.0405 6.27066 11.0082 6.24422C10.9758 6.21779 10.9365 6.20118 10.895 6.19637L8.7725 5.94386C8.73548 5.93946 8.7002 5.92566 8.67001 5.90378C8.63982 5.8819 8.61572 5.85267 8.6 5.81886L7.70375 3.87757C7.68612 3.83991 7.65812 3.80804 7.62303 3.78572C7.58794 3.7634 7.54721 3.75155 7.50563 3.75155C7.46404 3.75155 7.42331 3.7634 7.38822 3.78572C7.35313 3.80804 7.32513 3.83991 7.3075 3.87757H7.30875ZM7.5 16.2503C9.28819 16.253 11.0339 15.7053 12.5 14.6815V19.3754C12.4999 19.4901 12.4683 19.6026 12.4085 19.7005C12.3488 19.7985 12.2632 19.8781 12.1612 19.9306C12.0593 19.9831 11.9448 20.0066 11.8303 19.9984C11.7159 19.9902 11.606 19.9507 11.5125 19.8841L7.5 17.5003L3.4875 19.8841C3.39405 19.9507 3.28408 19.9902 3.16965 19.9984C3.05522 20.0066 2.94074 19.9831 2.83876 19.9306C2.73678 19.8781 2.65122 19.7985 2.59147 19.7005C2.53172 19.6026 2.50007 19.4901 2.5 19.3754V14.6815C3.96612 15.7053 5.71181 16.253 7.5 16.2503Z" fill="#E32935"/>
</svg>
